<svg xmlns="http://www.w3.org/2000/svg" width="202.874" height="99.135" viewBox="0 0 202.874 99.135">
  <defs>
    <style>
      .cls-1 {
        fill: #d63f48;
      }

      .cls-2, .cls-4, .cls-5, .cls-6 {
        fill: #313131;
      }

      .cls-3 {
        fill: none;
        stroke: #313131;
        stroke-linecap: round;
        stroke-width: 3px;
      }

      .cls-4 {
        font-size: 17px;
        font-family: OpenSans-Regular, Open Sans;
      }

      .cls-5 {
        font-size: 18px;
        font-family: Raleway-Bold, Raleway;
        font-weight: 700;
      }

      .cls-6 {
        font-size: 12px;
        font-family: OpenSans-Light, Open Sans;
        font-weight: 300;
      }
    </style>
  </defs>
  <g id="Group_52" data-name="Group 52" transform="translate(-58.126 -71.147)">
    <g id="Component_28_2" data-name="Component 28 – 2" transform="translate(58.126 71.147)">
      <path id="Path_84" data-name="Path 84" class="cls-1" d="M72.172,12.383a42.273,42.273,0,0,0-57.929-1.748,1.239,1.239,0,0,0,1.643,1.854,39.806,39.806,0,1,1-3.4,3.4,1.239,1.239,0,1,0-1.853-1.643,42.275,42.275,0,1,0,61.537-1.86Z" transform="translate(0 16.134) rotate(-11)"/>
      <g id="Group_40" data-name="Group 40" transform="translate(-1458.126 170.059)">
        <g id="Group_39" data-name="Group 39" transform="translate(1493.06 -147.206)">
          <g id="Group_38" data-name="Group 38" transform="translate(0)">
            <path id="Path_82" data-name="Path 82" class="cls-1" d="M123.247,0a10.766,10.766,0,0,0-6.5,2.157,10.949,10.949,0,0,0-3.873,5.472.793.793,0,0,0,1.514.471A9.352,9.352,0,0,1,117.7,3.427a9.273,9.273,0,0,1,14.82,7.431c0,.279-.013.561-.037.838a.792.792,0,0,0,.719.86c.024,0,.048,0,.072,0a.793.793,0,0,0,.788-.722c.029-.323.044-.653.044-.979A10.87,10.87,0,0,0,123.247,0Z" transform="translate(-112.842)"/>
          </g>
        </g>
        <path id="Path_83" data-name="Path 83" class="cls-2" d="M139.2,51.453h-.174a3.405,3.405,0,0,0-1.95.609,3.423,3.423,0,0,0-5.893-1.139,3.4,3.4,0,0,0-3.291-1.171,10.868,10.868,0,0,0,3.448-2.937.792.792,0,0,0-1.255-.968,9.261,9.261,0,0,1-3.452,2.761V46.474a7.4,7.4,0,1,0-6.851.493v2a9.312,9.312,0,0,1-5.952-6.207.792.792,0,0,0-1.523.439,10.936,10.936,0,0,0,3.85,5.621,10.772,10.772,0,0,0,3.624,1.817l0,4.818-.067-.04a3.219,3.219,0,0,0-3.981.526,3.286,3.286,0,0,0-.491,4.068.8.8,0,0,0,.06.086l.373.463a31.025,31.025,0,0,1,4.777,8.48,11.039,11.039,0,0,0,4.829,5.609l-.586,7.828a.792.792,0,0,0,.79.852h11.4a.793.793,0,0,0,.79-.852l-.585-7.828a10.764,10.764,0,0,0,5.5-9.273V54.793A3.369,3.369,0,0,0,139.2,51.453ZM116.926,40.187a5.814,5.814,0,1,1,9.708,4.311v-.322a3.507,3.507,0,0,0-.62-1.986,3.841,3.841,0,1,0-6,.7,3.4,3.4,0,0,0-.23,1.228v1.075A5.816,5.816,0,0,1,116.926,40.187Zm8.07,0a2.237,2.237,0,0,1-.192.909,3.3,3.3,0,0,0-1.259-.388,3.434,3.434,0,0,0-2.6.843A2.254,2.254,0,1,1,125,40.187Zm16.01,25.187h0A9.223,9.223,0,0,1,135.9,73.5a.792.792,0,0,0-.424.762l.559,7.485h-9.695l.561-7.484a.792.792,0,0,0-.424-.762,9.5,9.5,0,0,1-4.541-5.019,32.609,32.609,0,0,0-5.025-8.912l-.337-.418a1.707,1.707,0,0,1,.288-2.09,1.621,1.621,0,0,1,2.047-.276,2.5,2.5,0,0,1,.962,1.028.793.793,0,0,0,1.5-.366l.009-13.326a1.844,1.844,0,0,1,.607-1.361,1.82,1.82,0,0,1,1.415-.47,1.887,1.887,0,0,1,1.657,1.891V57.211a.793.793,0,1,0,1.585,0v-4.1a1.9,1.9,0,0,1,1.917-1.84,1.842,1.842,0,0,1,1.84,1.84s0,0,0,0v4.1a.793.793,0,1,0,1.585,0V53.147c0-.012,0-.024,0-.037a1.839,1.839,0,0,1,3.66-.26l.011,4.36a.793.793,0,1,0,1.585,0V54.6a1.789,1.789,0,0,1,1.793-1.562h.174a1.782,1.782,0,0,1,1.8,1.754Z" transform="translate(1380.724 -176.536)"/>
      </g>
      <line id="Line_61" data-name="Line 61" class="cls-3" x2="99" transform="translate(102.374 55.353)"/>
      <text id="Chase" class="cls-4" transform="translate(106.874 32.853)"><tspan x="0.87" y="18">Chase</tspan></text>
      <text id="Hart" class="cls-5" transform="translate(156.874 33.853)"><tspan x="1.235" y="17">Hart</tspan></text>
      <text id="UXUI_Design" data-name="UXUI Design" class="cls-6" transform="translate(116.874 55.853)"><tspan x="1.713" y="13">UXUI Design</tspan></text>
    </g>
  </g>
</svg>
